<mxfile host="app.diagrams.net" modified="2024-06-10T16:46:14.942Z" agent="Mozilla/5.0 (Windows NT 10.0; Win64; x64) AppleWebKit/537.36 (KHTML, like Gecko) Chrome/125.0.0.0 Safari/537.36" etag="UCaTv1p7NEjysFC3bo0c" version="24.5.2" type="device">
  <diagram id="C5RBs43oDa-KdzZeNtuy" name="Page-1">
    <mxGraphModel dx="986" dy="1256" grid="0" gridSize="10" guides="1" tooltips="1" connect="1" arrows="1" fold="1" page="1" pageScale="1" pageWidth="827" pageHeight="1169" math="0" shadow="0">
      <root>
        <mxCell id="WIyWlLk6GJQsqaUBKTNV-0" />
        <mxCell id="WIyWlLk6GJQsqaUBKTNV-1" parent="WIyWlLk6GJQsqaUBKTNV-0" />
        <mxCell id="ZECZMr-vLQMPn3KwDwAC-9" value="" style="shape=table;startSize=0;container=1;collapsible=0;childLayout=tableLayout;" parent="WIyWlLk6GJQsqaUBKTNV-1" vertex="1">
          <mxGeometry x="-801" y="-458" width="2179" height="1140" as="geometry" />
        </mxCell>
        <mxCell id="ZECZMr-vLQMPn3KwDwAC-10" value="" style="shape=tableRow;horizontal=0;startSize=0;swimlaneHead=0;swimlaneBody=0;strokeColor=inherit;top=0;left=0;bottom=0;right=0;collapsible=0;dropTarget=0;fillColor=none;points=[[0,0.5],[1,0.5]];portConstraint=eastwest;" parent="ZECZMr-vLQMPn3KwDwAC-9" vertex="1">
          <mxGeometry width="2179" height="75" as="geometry" />
        </mxCell>
        <mxCell id="ZECZMr-vLQMPn3KwDwAC-11" value="&lt;b&gt;&lt;font style=&quot;font-size: 32px;&quot;&gt;REGISTRATION&lt;/font&gt;&lt;/b&gt;" style="shape=partialRectangle;html=1;whiteSpace=wrap;connectable=0;strokeColor=inherit;overflow=hidden;fillColor=none;top=0;left=0;bottom=0;right=0;pointerEvents=1;" parent="ZECZMr-vLQMPn3KwDwAC-10" vertex="1">
          <mxGeometry width="544" height="75" as="geometry">
            <mxRectangle width="544" height="75" as="alternateBounds" />
          </mxGeometry>
        </mxCell>
        <mxCell id="ZECZMr-vLQMPn3KwDwAC-12" value="&lt;b&gt;&lt;font style=&quot;font-size: 32px;&quot;&gt;MESSAGING&lt;/font&gt;&lt;/b&gt;" style="shape=partialRectangle;html=1;whiteSpace=wrap;connectable=0;strokeColor=inherit;overflow=hidden;fillColor=none;top=0;left=0;bottom=0;right=0;pointerEvents=1;" parent="ZECZMr-vLQMPn3KwDwAC-10" vertex="1">
          <mxGeometry x="544" width="537" height="75" as="geometry">
            <mxRectangle width="537" height="75" as="alternateBounds" />
          </mxGeometry>
        </mxCell>
        <mxCell id="ZECZMr-vLQMPn3KwDwAC-13" value="&lt;b&gt;&lt;font style=&quot;font-size: 32px;&quot;&gt;CALLING&lt;/font&gt;&lt;/b&gt;" style="shape=partialRectangle;html=1;whiteSpace=wrap;connectable=0;strokeColor=inherit;overflow=hidden;fillColor=none;top=0;left=0;bottom=0;right=0;pointerEvents=1;" parent="ZECZMr-vLQMPn3KwDwAC-10" vertex="1">
          <mxGeometry x="1081" width="549" height="75" as="geometry">
            <mxRectangle width="549" height="75" as="alternateBounds" />
          </mxGeometry>
        </mxCell>
        <mxCell id="t-v-BBZ0oY9HuMJMpz6w-0" value="&lt;span style=&quot;font-size: 32px;&quot;&gt;&lt;b&gt;PAYMENTS&lt;/b&gt;&lt;/span&gt;" style="shape=partialRectangle;html=1;whiteSpace=wrap;connectable=0;strokeColor=inherit;overflow=hidden;fillColor=none;top=0;left=0;bottom=0;right=0;pointerEvents=1;" vertex="1" parent="ZECZMr-vLQMPn3KwDwAC-10">
          <mxGeometry x="1630" width="549" height="75" as="geometry">
            <mxRectangle width="549" height="75" as="alternateBounds" />
          </mxGeometry>
        </mxCell>
        <mxCell id="ZECZMr-vLQMPn3KwDwAC-14" value="" style="shape=tableRow;horizontal=0;startSize=0;swimlaneHead=0;swimlaneBody=0;strokeColor=inherit;top=0;left=0;bottom=0;right=0;collapsible=0;dropTarget=0;fillColor=none;points=[[0,0.5],[1,0.5]];portConstraint=eastwest;" parent="ZECZMr-vLQMPn3KwDwAC-9" vertex="1">
          <mxGeometry y="75" width="2179" height="1065" as="geometry" />
        </mxCell>
        <mxCell id="ZECZMr-vLQMPn3KwDwAC-15" value="" style="shape=partialRectangle;html=1;whiteSpace=wrap;connectable=0;strokeColor=inherit;overflow=hidden;fillColor=none;top=0;left=0;bottom=0;right=0;pointerEvents=1;" parent="ZECZMr-vLQMPn3KwDwAC-14" vertex="1">
          <mxGeometry width="544" height="1065" as="geometry">
            <mxRectangle width="544" height="1065" as="alternateBounds" />
          </mxGeometry>
        </mxCell>
        <mxCell id="ZECZMr-vLQMPn3KwDwAC-16" value="" style="shape=partialRectangle;html=1;whiteSpace=wrap;connectable=0;strokeColor=inherit;overflow=hidden;fillColor=none;top=0;left=0;bottom=0;right=0;pointerEvents=1;" parent="ZECZMr-vLQMPn3KwDwAC-14" vertex="1">
          <mxGeometry x="544" width="537" height="1065" as="geometry">
            <mxRectangle width="537" height="1065" as="alternateBounds" />
          </mxGeometry>
        </mxCell>
        <mxCell id="ZECZMr-vLQMPn3KwDwAC-17" value="" style="shape=partialRectangle;html=1;whiteSpace=wrap;connectable=0;strokeColor=inherit;overflow=hidden;fillColor=none;top=0;left=0;bottom=0;right=0;pointerEvents=1;" parent="ZECZMr-vLQMPn3KwDwAC-14" vertex="1">
          <mxGeometry x="1081" width="549" height="1065" as="geometry">
            <mxRectangle width="549" height="1065" as="alternateBounds" />
          </mxGeometry>
        </mxCell>
        <mxCell id="t-v-BBZ0oY9HuMJMpz6w-1" style="shape=partialRectangle;html=1;whiteSpace=wrap;connectable=0;strokeColor=inherit;overflow=hidden;fillColor=none;top=0;left=0;bottom=0;right=0;pointerEvents=1;" vertex="1" parent="ZECZMr-vLQMPn3KwDwAC-14">
          <mxGeometry x="1630" width="549" height="1065" as="geometry">
            <mxRectangle width="549" height="1065" as="alternateBounds" />
          </mxGeometry>
        </mxCell>
        <mxCell id="ZECZMr-vLQMPn3KwDwAC-2" value="&lt;font style=&quot;font-size: 18px;&quot;&gt;Start&lt;/font&gt;" style="strokeWidth=2;html=1;shape=mxgraph.flowchart.start_1;whiteSpace=wrap;" parent="WIyWlLk6GJQsqaUBKTNV-1" vertex="1">
          <mxGeometry x="-668.75" y="-354" width="110" height="70" as="geometry" />
        </mxCell>
        <mxCell id="ZECZMr-vLQMPn3KwDwAC-3" value="" style="endArrow=classic;html=1;rounded=0;fontSize=12;startSize=8;endSize=8;curved=1;exitX=0.5;exitY=1;exitDx=0;exitDy=0;exitPerimeter=0;strokeWidth=2;" parent="WIyWlLk6GJQsqaUBKTNV-1" source="ZECZMr-vLQMPn3KwDwAC-2" edge="1">
          <mxGeometry width="50" height="50" relative="1" as="geometry">
            <mxPoint x="-658.75" y="-174" as="sourcePoint" />
            <mxPoint x="-613.75" y="-224" as="targetPoint" />
          </mxGeometry>
        </mxCell>
        <mxCell id="ZECZMr-vLQMPn3KwDwAC-4" value="&lt;font style=&quot;font-size: 18px;&quot;&gt;Is WhatsApp Installed&lt;/font&gt;" style="strokeWidth=2;html=1;shape=mxgraph.flowchart.decision;whiteSpace=wrap;" parent="WIyWlLk6GJQsqaUBKTNV-1" vertex="1">
          <mxGeometry x="-685" y="-224" width="142.5" height="130" as="geometry" />
        </mxCell>
        <mxCell id="ZECZMr-vLQMPn3KwDwAC-5" value="" style="endArrow=classic;html=1;rounded=0;fontSize=12;startSize=8;endSize=8;curved=1;exitX=0.5;exitY=1;exitDx=0;exitDy=0;exitPerimeter=0;strokeWidth=2;entryX=0;entryY=0.5;entryDx=0;entryDy=0;" parent="WIyWlLk6GJQsqaUBKTNV-1" target="ZECZMr-vLQMPn3KwDwAC-19" edge="1">
          <mxGeometry width="50" height="50" relative="1" as="geometry">
            <mxPoint x="-542.5" y="-159.2" as="sourcePoint" />
            <mxPoint x="-478.75" y="-159.2" as="targetPoint" />
          </mxGeometry>
        </mxCell>
        <mxCell id="ZECZMr-vLQMPn3KwDwAC-6" value="&lt;font style=&quot;font-size: 18px;&quot;&gt;&lt;b&gt;Yes&lt;/b&gt;&lt;/font&gt;" style="text;html=1;align=center;verticalAlign=middle;whiteSpace=wrap;rounded=0;fontSize=16;" parent="WIyWlLk6GJQsqaUBKTNV-1" vertex="1">
          <mxGeometry x="-663" y="-62" width="60" height="30" as="geometry" />
        </mxCell>
        <mxCell id="ZECZMr-vLQMPn3KwDwAC-7" value="" style="endArrow=classic;html=1;rounded=0;fontSize=12;startSize=8;endSize=8;curved=1;exitX=0.5;exitY=1;exitDx=0;exitDy=0;exitPerimeter=0;strokeWidth=2;entryX=0.5;entryY=0;entryDx=0;entryDy=0;entryPerimeter=0;" parent="WIyWlLk6GJQsqaUBKTNV-1" target="ZECZMr-vLQMPn3KwDwAC-22" edge="1">
          <mxGeometry width="50" height="50" relative="1" as="geometry">
            <mxPoint x="-613.95" y="-94" as="sourcePoint" />
            <mxPoint x="-615" y="18" as="targetPoint" />
          </mxGeometry>
        </mxCell>
        <mxCell id="ZECZMr-vLQMPn3KwDwAC-19" value="&lt;font style=&quot;font-size: 18px;&quot;&gt;Install WhatsApp&lt;/font&gt;" style="rounded=1;whiteSpace=wrap;html=1;strokeWidth=2;" parent="WIyWlLk6GJQsqaUBKTNV-1" vertex="1">
          <mxGeometry x="-475" y="-189" width="120" height="60" as="geometry" />
        </mxCell>
        <mxCell id="ZECZMr-vLQMPn3KwDwAC-20" value="&lt;font style=&quot;font-size: 18px;&quot;&gt;&lt;b&gt;No&lt;/b&gt;&lt;/font&gt;" style="text;html=1;align=center;verticalAlign=middle;whiteSpace=wrap;rounded=0;fontSize=16;" parent="WIyWlLk6GJQsqaUBKTNV-1" vertex="1">
          <mxGeometry x="-541.81" y="-189" width="60" height="30" as="geometry" />
        </mxCell>
        <mxCell id="ZECZMr-vLQMPn3KwDwAC-22" value="&lt;font style=&quot;font-size: 18px;&quot;&gt;Is Account&lt;/font&gt;&lt;div&gt;&lt;span style=&quot;font-size: 18px;&quot;&gt;Created&lt;/span&gt;&lt;/div&gt;" style="strokeWidth=2;html=1;shape=mxgraph.flowchart.decision;whiteSpace=wrap;" parent="WIyWlLk6GJQsqaUBKTNV-1" vertex="1">
          <mxGeometry x="-684.31" y="25" width="142.5" height="130" as="geometry" />
        </mxCell>
        <mxCell id="ZECZMr-vLQMPn3KwDwAC-25" value="" style="endArrow=none;html=1;rounded=0;fontSize=12;startSize=8;endSize=8;strokeWidth=2;" parent="WIyWlLk6GJQsqaUBKTNV-1" edge="1">
          <mxGeometry width="50" height="50" relative="1" as="geometry">
            <mxPoint x="-413" y="-45" as="sourcePoint" />
            <mxPoint x="-413" y="-129" as="targetPoint" />
          </mxGeometry>
        </mxCell>
        <mxCell id="ZECZMr-vLQMPn3KwDwAC-26" value="" style="endArrow=none;html=1;rounded=0;fontSize=12;startSize=8;endSize=8;curved=1;strokeWidth=2;" parent="WIyWlLk6GJQsqaUBKTNV-1" edge="1">
          <mxGeometry width="50" height="50" relative="1" as="geometry">
            <mxPoint x="-413" y="-45" as="sourcePoint" />
            <mxPoint x="-613" y="-45" as="targetPoint" />
          </mxGeometry>
        </mxCell>
        <mxCell id="ZECZMr-vLQMPn3KwDwAC-27" value="&lt;font style=&quot;font-size: 18px;&quot;&gt;&lt;b&gt;Yes&lt;/b&gt;&lt;/font&gt;" style="text;html=1;align=center;verticalAlign=middle;whiteSpace=wrap;rounded=0;fontSize=16;" parent="WIyWlLk6GJQsqaUBKTNV-1" vertex="1">
          <mxGeometry x="-410" y="55" width="60" height="30" as="geometry" />
        </mxCell>
        <mxCell id="ZECZMr-vLQMPn3KwDwAC-28" value="" style="endArrow=classic;html=1;rounded=0;fontSize=12;startSize=8;endSize=8;curved=1;exitX=1;exitY=0.5;exitDx=0;exitDy=0;exitPerimeter=0;strokeWidth=2;entryX=0;entryY=0.5;entryDx=0;entryDy=0;" parent="WIyWlLk6GJQsqaUBKTNV-1" source="ZECZMr-vLQMPn3KwDwAC-22" target="ZECZMr-vLQMPn3KwDwAC-61" edge="1">
          <mxGeometry width="50" height="50" relative="1" as="geometry">
            <mxPoint x="-542.5" y="83.79999999999995" as="sourcePoint" />
            <mxPoint x="-193" y="85" as="targetPoint" />
          </mxGeometry>
        </mxCell>
        <mxCell id="ZECZMr-vLQMPn3KwDwAC-30" value="" style="endArrow=classic;html=1;rounded=0;fontSize=12;startSize=8;endSize=8;curved=1;exitX=0.5;exitY=1;exitDx=0;exitDy=0;exitPerimeter=0;strokeWidth=2;" parent="WIyWlLk6GJQsqaUBKTNV-1" source="ZECZMr-vLQMPn3KwDwAC-22" edge="1">
          <mxGeometry width="50" height="50" relative="1" as="geometry">
            <mxPoint x="-613.95" y="149" as="sourcePoint" />
            <mxPoint x="-614" y="236" as="targetPoint" />
          </mxGeometry>
        </mxCell>
        <mxCell id="ZECZMr-vLQMPn3KwDwAC-31" value="&lt;font style=&quot;font-size: 18px;&quot;&gt;&lt;b&gt;No&lt;/b&gt;&lt;/font&gt;" style="text;html=1;align=center;verticalAlign=middle;whiteSpace=wrap;rounded=0;fontSize=16;" parent="WIyWlLk6GJQsqaUBKTNV-1" vertex="1">
          <mxGeometry x="-660" y="170" width="60" height="30" as="geometry" />
        </mxCell>
        <mxCell id="ZECZMr-vLQMPn3KwDwAC-32" value="&lt;font style=&quot;font-size: 18px;&quot;&gt;Fill Registration Form&lt;/font&gt;" style="rounded=1;whiteSpace=wrap;html=1;strokeWidth=2;" parent="WIyWlLk6GJQsqaUBKTNV-1" vertex="1">
          <mxGeometry x="-681.25" y="236" width="138.75" height="58" as="geometry" />
        </mxCell>
        <mxCell id="ZECZMr-vLQMPn3KwDwAC-34" value="" style="endArrow=classic;html=1;rounded=0;fontSize=12;startSize=8;endSize=8;curved=1;exitX=0.5;exitY=1;exitDx=0;exitDy=0;strokeWidth=2;entryX=0.5;entryY=0;entryDx=0;entryDy=0;" parent="WIyWlLk6GJQsqaUBKTNV-1" source="ZECZMr-vLQMPn3KwDwAC-32" target="ZECZMr-vLQMPn3KwDwAC-35" edge="1">
          <mxGeometry width="50" height="50" relative="1" as="geometry">
            <mxPoint x="-613.95" y="295" as="sourcePoint" />
            <mxPoint x="-614" y="382" as="targetPoint" />
          </mxGeometry>
        </mxCell>
        <mxCell id="ZECZMr-vLQMPn3KwDwAC-35" value="&lt;font style=&quot;font-size: 18px;&quot;&gt;Click on Send/resend OTP&lt;/font&gt;" style="rounded=1;whiteSpace=wrap;html=1;strokeWidth=2;" parent="WIyWlLk6GJQsqaUBKTNV-1" vertex="1">
          <mxGeometry x="-683.12" y="383" width="140.12" height="70" as="geometry" />
        </mxCell>
        <mxCell id="ZECZMr-vLQMPn3KwDwAC-36" value="" style="endArrow=classic;html=1;rounded=0;fontSize=12;startSize=8;endSize=8;curved=1;exitX=0.5;exitY=1;exitDx=0;exitDy=0;exitPerimeter=0;strokeWidth=2;entryX=0;entryY=0.5;entryDx=0;entryDy=0;entryPerimeter=0;" parent="WIyWlLk6GJQsqaUBKTNV-1" target="ZECZMr-vLQMPn3KwDwAC-40" edge="1">
          <mxGeometry width="50" height="50" relative="1" as="geometry">
            <mxPoint x="-542.5" y="417.79999999999995" as="sourcePoint" />
            <mxPoint x="-474.9999999999998" y="418.0000000000002" as="targetPoint" />
          </mxGeometry>
        </mxCell>
        <mxCell id="ZECZMr-vLQMPn3KwDwAC-40" value="&lt;span style=&quot;font-size: 18px;&quot;&gt;Valid OTP&lt;/span&gt;" style="strokeWidth=2;html=1;shape=mxgraph.flowchart.decision;whiteSpace=wrap;" parent="WIyWlLk6GJQsqaUBKTNV-1" vertex="1">
          <mxGeometry x="-477" y="353" width="142.5" height="130" as="geometry" />
        </mxCell>
        <mxCell id="ZECZMr-vLQMPn3KwDwAC-41" value="" style="endArrow=none;html=1;rounded=0;fontSize=12;startSize=8;endSize=8;curved=1;strokeWidth=2;" parent="WIyWlLk6GJQsqaUBKTNV-1" edge="1">
          <mxGeometry width="50" height="50" relative="1" as="geometry">
            <mxPoint x="-134" y="418" as="sourcePoint" />
            <mxPoint x="-334.5" y="418" as="targetPoint" />
          </mxGeometry>
        </mxCell>
        <mxCell id="ZECZMr-vLQMPn3KwDwAC-43" value="" style="endArrow=classic;html=1;rounded=0;fontSize=12;startSize=8;endSize=8;curved=1;strokeWidth=2;" parent="WIyWlLk6GJQsqaUBKTNV-1" edge="1">
          <mxGeometry width="50" height="50" relative="1" as="geometry">
            <mxPoint x="-135" y="418" as="sourcePoint" />
            <mxPoint x="-135.19000000000005" y="125" as="targetPoint" />
          </mxGeometry>
        </mxCell>
        <mxCell id="ZECZMr-vLQMPn3KwDwAC-44" value="" style="endArrow=none;html=1;rounded=0;fontSize=12;startSize=8;endSize=8;curved=1;strokeWidth=2;entryX=0.498;entryY=1;entryDx=0;entryDy=0;entryPerimeter=0;" parent="WIyWlLk6GJQsqaUBKTNV-1" target="ZECZMr-vLQMPn3KwDwAC-40" edge="1">
          <mxGeometry width="50" height="50" relative="1" as="geometry">
            <mxPoint x="-405" y="606" as="sourcePoint" />
            <mxPoint x="-406.75" y="483" as="targetPoint" />
          </mxGeometry>
        </mxCell>
        <mxCell id="ZECZMr-vLQMPn3KwDwAC-45" value="" style="endArrow=classic;html=1;rounded=0;fontSize=12;startSize=8;endSize=8;curved=1;strokeWidth=2;entryX=0.5;entryY=1;entryDx=0;entryDy=0;" parent="WIyWlLk6GJQsqaUBKTNV-1" edge="1">
          <mxGeometry width="50" height="50" relative="1" as="geometry">
            <mxPoint x="-613" y="607" as="sourcePoint" />
            <mxPoint x="-612.5" y="453" as="targetPoint" />
          </mxGeometry>
        </mxCell>
        <mxCell id="ZECZMr-vLQMPn3KwDwAC-46" value="" style="endArrow=none;html=1;rounded=0;fontSize=12;startSize=8;endSize=8;curved=1;strokeWidth=2;" parent="WIyWlLk6GJQsqaUBKTNV-1" edge="1">
          <mxGeometry width="50" height="50" relative="1" as="geometry">
            <mxPoint x="-404" y="606" as="sourcePoint" />
            <mxPoint x="-614" y="607" as="targetPoint" />
          </mxGeometry>
        </mxCell>
        <mxCell id="ZECZMr-vLQMPn3KwDwAC-47" value="&lt;font style=&quot;font-size: 18px;&quot;&gt;&lt;b&gt;No&lt;/b&gt;&lt;/font&gt;" style="text;html=1;align=center;verticalAlign=middle;whiteSpace=wrap;rounded=0;fontSize=16;" parent="WIyWlLk6GJQsqaUBKTNV-1" vertex="1">
          <mxGeometry x="-547" y="574" width="60" height="30" as="geometry" />
        </mxCell>
        <mxCell id="ZECZMr-vLQMPn3KwDwAC-48" value="&lt;font style=&quot;font-size: 18px;&quot;&gt;&lt;b&gt;Yes&lt;/b&gt;&lt;/font&gt;" style="text;html=1;align=center;verticalAlign=middle;whiteSpace=wrap;rounded=0;fontSize=16;" parent="WIyWlLk6GJQsqaUBKTNV-1" vertex="1">
          <mxGeometry x="-326" y="383" width="60" height="30" as="geometry" />
        </mxCell>
        <mxCell id="ZECZMr-vLQMPn3KwDwAC-49" value="&lt;span style=&quot;font-size: 18px;&quot;&gt;Do you want&amp;nbsp;&lt;/span&gt;&lt;div&gt;&lt;span style=&quot;font-size: 18px;&quot;&gt;to chat?&lt;/span&gt;&lt;/div&gt;" style="strokeWidth=2;html=1;shape=mxgraph.flowchart.decision;whiteSpace=wrap;" parent="WIyWlLk6GJQsqaUBKTNV-1" vertex="1">
          <mxGeometry x="1" y="-239.5" width="166" height="161" as="geometry" />
        </mxCell>
        <mxCell id="ZECZMr-vLQMPn3KwDwAC-50" value="" style="endArrow=none;html=1;rounded=0;fontSize=12;startSize=8;endSize=8;curved=1;strokeWidth=2;" parent="WIyWlLk6GJQsqaUBKTNV-1" edge="1">
          <mxGeometry width="50" height="50" relative="1" as="geometry">
            <mxPoint x="-136" y="55" as="sourcePoint" />
            <mxPoint x="-136" y="-160" as="targetPoint" />
          </mxGeometry>
        </mxCell>
        <mxCell id="ZECZMr-vLQMPn3KwDwAC-52" value="" style="endArrow=classic;html=1;rounded=0;fontSize=12;startSize=8;endSize=8;curved=1;strokeWidth=2;entryX=0;entryY=0.5;entryDx=0;entryDy=0;entryPerimeter=0;" parent="WIyWlLk6GJQsqaUBKTNV-1" target="ZECZMr-vLQMPn3KwDwAC-49" edge="1">
          <mxGeometry width="50" height="50" relative="1" as="geometry">
            <mxPoint x="-137" y="-160" as="sourcePoint" />
            <mxPoint x="-0.5" y="-159.32999999999998" as="targetPoint" />
          </mxGeometry>
        </mxCell>
        <mxCell id="ZECZMr-vLQMPn3KwDwAC-53" value="" style="endArrow=classic;html=1;rounded=0;fontSize=12;startSize=8;endSize=8;curved=1;strokeWidth=2;entryX=0;entryY=0.5;entryDx=0;entryDy=0;entryPerimeter=0;exitX=1;exitY=0.5;exitDx=0;exitDy=0;exitPerimeter=0;" parent="WIyWlLk6GJQsqaUBKTNV-1" source="ZECZMr-vLQMPn3KwDwAC-49" target="ZECZMr-vLQMPn3KwDwAC-54" edge="1">
          <mxGeometry width="50" height="50" relative="1" as="geometry">
            <mxPoint x="167" y="-159.52999999999997" as="sourcePoint" />
            <mxPoint x="398" y="-159" as="targetPoint" />
          </mxGeometry>
        </mxCell>
        <mxCell id="ZECZMr-vLQMPn3KwDwAC-54" value="&lt;span style=&quot;font-size: 18px;&quot;&gt;Do you want&amp;nbsp;&lt;/span&gt;&lt;div&gt;&lt;span style=&quot;font-size: 18px;&quot;&gt;to call?&lt;/span&gt;&lt;/div&gt;" style="strokeWidth=2;html=1;shape=mxgraph.flowchart.decision;whiteSpace=wrap;" parent="WIyWlLk6GJQsqaUBKTNV-1" vertex="1">
          <mxGeometry x="489" y="-239.5" width="166" height="161" as="geometry" />
        </mxCell>
        <mxCell id="ZECZMr-vLQMPn3KwDwAC-55" value="" style="endArrow=classic;html=1;rounded=0;fontSize=12;startSize=8;endSize=8;curved=1;strokeWidth=2;exitX=0.5;exitY=1;exitDx=0;exitDy=0;exitPerimeter=0;" parent="WIyWlLk6GJQsqaUBKTNV-1" source="ZECZMr-vLQMPn3KwDwAC-49" edge="1">
          <mxGeometry width="50" height="50" relative="1" as="geometry">
            <mxPoint x="83" y="-78" as="sourcePoint" />
            <mxPoint x="83" y="55" as="targetPoint" />
          </mxGeometry>
        </mxCell>
        <mxCell id="ZECZMr-vLQMPn3KwDwAC-56" value="&lt;font style=&quot;font-size: 18px;&quot;&gt;Select contact/group and chat&lt;/font&gt;" style="rounded=1;whiteSpace=wrap;html=1;strokeWidth=2;" parent="WIyWlLk6GJQsqaUBKTNV-1" vertex="1">
          <mxGeometry x="13.940000000000055" y="55" width="140.12" height="70" as="geometry" />
        </mxCell>
        <mxCell id="ZECZMr-vLQMPn3KwDwAC-57" value="&lt;font style=&quot;font-size: 18px;&quot;&gt;Select contact/group and make audio/video call&lt;/font&gt;" style="rounded=1;whiteSpace=wrap;html=1;strokeWidth=2;" parent="WIyWlLk6GJQsqaUBKTNV-1" vertex="1">
          <mxGeometry x="487.97" y="41" width="168.06" height="94" as="geometry" />
        </mxCell>
        <mxCell id="ZECZMr-vLQMPn3KwDwAC-59" value="" style="endArrow=classic;html=1;rounded=0;fontSize=12;startSize=8;endSize=8;curved=1;strokeWidth=2;exitX=0.5;exitY=1;exitDx=0;exitDy=0;exitPerimeter=0;" parent="WIyWlLk6GJQsqaUBKTNV-1" source="ZECZMr-vLQMPn3KwDwAC-54" edge="1">
          <mxGeometry width="50" height="50" relative="1" as="geometry">
            <mxPoint x="573" y="-79" as="sourcePoint" />
            <mxPoint x="571.5" y="41" as="targetPoint" />
          </mxGeometry>
        </mxCell>
        <mxCell id="ZECZMr-vLQMPn3KwDwAC-82" value="" style="edgeStyle=none;curved=1;rounded=0;orthogonalLoop=1;jettySize=auto;html=1;fontSize=12;startSize=8;endSize=8;strokeWidth=2;" parent="WIyWlLk6GJQsqaUBKTNV-1" source="ZECZMr-vLQMPn3KwDwAC-60" target="ZECZMr-vLQMPn3KwDwAC-79" edge="1">
          <mxGeometry relative="1" as="geometry" />
        </mxCell>
        <mxCell id="ZECZMr-vLQMPn3KwDwAC-60" value="&lt;span style=&quot;font-size: 18px;&quot;&gt;You can change DP, status, view chats, change setting etc.&lt;/span&gt;" style="rounded=1;whiteSpace=wrap;html=1;strokeWidth=2;" parent="WIyWlLk6GJQsqaUBKTNV-1" vertex="1">
          <mxGeometry x="491" y="233" width="168.06" height="94" as="geometry" />
        </mxCell>
        <mxCell id="ZECZMr-vLQMPn3KwDwAC-61" value="&lt;span style=&quot;font-size: 18px;&quot;&gt;Account is active&lt;/span&gt;" style="rounded=1;whiteSpace=wrap;html=1;strokeWidth=2;" parent="WIyWlLk6GJQsqaUBKTNV-1" vertex="1">
          <mxGeometry x="-205" y="55" width="140.12" height="70" as="geometry" />
        </mxCell>
        <mxCell id="ZECZMr-vLQMPn3KwDwAC-64" value="" style="endArrow=classic;html=1;rounded=0;fontSize=12;startSize=8;endSize=8;curved=1;strokeWidth=2;" parent="WIyWlLk6GJQsqaUBKTNV-1" edge="1">
          <mxGeometry width="50" height="50" relative="1" as="geometry">
            <mxPoint x="745" y="277" as="sourcePoint" />
            <mxPoint x="659.06" y="277" as="targetPoint" />
          </mxGeometry>
        </mxCell>
        <mxCell id="ZECZMr-vLQMPn3KwDwAC-65" value="&lt;font style=&quot;font-size: 18px;&quot;&gt;&lt;b&gt;No&lt;/b&gt;&lt;/font&gt;" style="text;html=1;align=center;verticalAlign=middle;whiteSpace=wrap;rounded=0;fontSize=16;" parent="WIyWlLk6GJQsqaUBKTNV-1" vertex="1">
          <mxGeometry x="201" y="-189" width="60" height="30" as="geometry" />
        </mxCell>
        <mxCell id="ZECZMr-vLQMPn3KwDwAC-66" value="&lt;font style=&quot;font-size: 18px;&quot;&gt;&lt;b&gt;No&lt;/b&gt;&lt;/font&gt;" style="text;html=1;align=center;verticalAlign=middle;whiteSpace=wrap;rounded=0;fontSize=16;" parent="WIyWlLk6GJQsqaUBKTNV-1" vertex="1">
          <mxGeometry x="730" y="-189" width="60" height="30" as="geometry" />
        </mxCell>
        <mxCell id="ZECZMr-vLQMPn3KwDwAC-67" value="&lt;font style=&quot;font-size: 18px;&quot;&gt;&lt;b&gt;Yes&lt;/b&gt;&lt;/font&gt;" style="text;html=1;align=center;verticalAlign=middle;whiteSpace=wrap;rounded=0;fontSize=16;" parent="WIyWlLk6GJQsqaUBKTNV-1" vertex="1">
          <mxGeometry x="517" y="-45" width="60" height="30" as="geometry" />
        </mxCell>
        <mxCell id="ZECZMr-vLQMPn3KwDwAC-79" value="&lt;font style=&quot;font-size: 18px;&quot;&gt;Stop&lt;/font&gt;" style="strokeWidth=2;html=1;shape=mxgraph.flowchart.start_1;whiteSpace=wrap;" parent="WIyWlLk6GJQsqaUBKTNV-1" vertex="1">
          <mxGeometry x="520.03" y="419" width="110" height="70" as="geometry" />
        </mxCell>
        <mxCell id="t-v-BBZ0oY9HuMJMpz6w-2" value="" style="endArrow=classic;html=1;rounded=0;fontSize=12;startSize=8;endSize=8;curved=1;strokeWidth=2;exitX=1;exitY=0.5;exitDx=0;exitDy=0;exitPerimeter=0;" edge="1" parent="WIyWlLk6GJQsqaUBKTNV-1">
          <mxGeometry width="50" height="50" relative="1" as="geometry">
            <mxPoint x="655" y="-159" as="sourcePoint" />
            <mxPoint x="897" y="-159" as="targetPoint" />
          </mxGeometry>
        </mxCell>
        <mxCell id="t-v-BBZ0oY9HuMJMpz6w-3" value="&lt;span style=&quot;font-size: 18px;&quot;&gt;Do you want&amp;nbsp;&lt;/span&gt;&lt;div&gt;&lt;span style=&quot;font-size: 18px;&quot;&gt;to make or recieve&lt;/span&gt;&lt;/div&gt;&lt;div&gt;&lt;span style=&quot;font-size: 18px;&quot;&gt;any payment&lt;/span&gt;&lt;/div&gt;" style="strokeWidth=2;html=1;shape=mxgraph.flowchart.decision;whiteSpace=wrap;" vertex="1" parent="WIyWlLk6GJQsqaUBKTNV-1">
          <mxGeometry x="896" y="-240.25" width="173" height="162.5" as="geometry" />
        </mxCell>
      </root>
    </mxGraphModel>
  </diagram>
</mxfile>
